# xmcd
#
# Track frame offsets: 
#        150
#        20789
#        36195
#        57293
#        79145
#        99975
#        122393
#        137994
#        155850
#        173214
#        197766
#        218955
#        235191
#        256664
#        270539
#
# Disc length: 3961 seconds
#
# Revision: 6
# Processed by: cddbd v1.5.2PL0 Copyright (c) Steve Scherf et al.
# Submitted via: ExactAudioCopy v0.99pb4
#
DISCID=d10f770f
DTITLE=Various Artist - Box of the Blues 4
DYEAR=1900
DGENRE=
TTITLE0=Ruth Brown - Good Day for the Blues
TTITLE1=Wilson Pickett - Outskirts of Town
TTITLE2=Bobby King - Live and Let Live
TTITLE3=Johnny Adams - Roadblock
TTITLE4=Otis Clay - I Can Take You to Heaven Tonight
TTITLE5=Solomon Burke - Got to Get Myself Some Money
TTITLE6=Paul Kelly - Nowhere to Hide
TTITLE7=Little Buster and the Soul Brothers - What Can I Do
TTITLE8=Theryl "Houseman" de'Clouet - Two Wrongs
TTITLE9=Charles Brown - I Stepped in Quicksand
TTITLE10=Ann Peebles - Ain't No Business Like Your Business
TTITLE11=Holmes Brothers - Promised Land
TTITLE12=Irma Thomas - You Don't Know Nothin' About Love
TTITLE13=Ted Hawkins - Bring it on Home Daddy
TTITLE14=Walter "Wolfman" Washington - Out of the Dark
EXTD=
EXTT0=
EXTT1=
EXTT2=
EXTT3=
EXTT4=
EXTT5=
EXTT6=
EXTT7=
EXTT8=
EXTT9=
EXTT10=
EXTT11=
EXTT12=
EXTT13=
EXTT14=
PLAYORDER=
